HIERARCHY
ROOT Hips
{
	OFFSET 0.076331 88.517960 4.102760
	CHANNELS 6 Xposition Yposition Zposition Zrotation Yrotation Xrotation 
	JOINT Spine
	{
		OFFSET -0.000000 8.814246 -2.080107
		CHANNELS 3 Zrotation Yrotation Xrotation
		JOINT Spine1
		{
			OFFSET -0.000000 8.844141 -0.000000
			CHANNELS 3 Zrotation Yrotation Xrotation
			JOINT Spine2
			{
				OFFSET -0.000000 11.682268 -0.000000
				CHANNELS 3 Zrotation Yrotation Xrotation
				JOINT Spine3
				{
					OFFSET -0.000000 11.746700 0.000000
					CHANNELS 3 Zrotation Yrotation Xrotation
					JOINT Neck
					{
						OFFSET -0.000000 17.658264 0.000000
						CHANNELS 3 Zrotation Yrotation Xrotation
						JOINT Neck1
						{
							OFFSET -0.000000 5.101515 0.000000
							CHANNELS 3 Zrotation Yrotation Xrotation
							JOINT Head
							{
								OFFSET 0.000000 5.101515 -0.000000
								CHANNELS 3 Zrotation Yrotation Xrotation
								JOINT HeadEnd
								{
									OFFSET 0.000000 11.655085 0.000000
									CHANNELS 3 Zrotation Yrotation Xrotation
									End Site
									{
										OFFSET 0.000000 0.000000 0.000000
									}
								}
							}
						}
					}
					JOINT RightShoulder
					{
						OFFSET -2.625389 11.175210 -0.000000
						CHANNELS 3 Zrotation Yrotation Xrotation
						JOINT RightArm
						{
							OFFSET -0.000000 10.434715 -0.000000
							CHANNELS 3 Zrotation Yrotation Xrotation
							JOINT RightForeArm
							{
								OFFSET 0.000000 29.628420 0.000000
								CHANNELS 3 Zrotation Yrotation Xrotation
								JOINT RightHand
								{
									OFFSET -0.000000 22.857611 0.000000
									CHANNELS 3 Zrotation Yrotation Xrotation
									JOINT RightHandThumb1
									{
										OFFSET -2.867323 3.959563 2.944291
										CHANNELS 3 Zrotation Yrotation Xrotation
										JOINT RightHandThumb2
										{
											OFFSET -0.000000 3.350399 -0.000000
											CHANNELS 3 Zrotation Yrotation Xrotation
											JOINT RightHandThumb3
											{
												OFFSET 0.000000 3.756509 -0.000000
												CHANNELS 3 Zrotation Yrotation Xrotation
												JOINT RightHandThumb4
												{
													OFFSET -0.000000 3.147345 -0.000000
													CHANNELS 3 Zrotation Yrotation Xrotation
													End Site
													{
														OFFSET 0.000000 0.000000 0.000000
													}
												}
											}
										}
									}
									JOINT RightHandIndex1
									{
										OFFSET -0.086752 10.030893 2.345280
										CHANNELS 3 Zrotation Yrotation Xrotation
										JOINT RightHandIndex2
										{
											OFFSET 0.000000 4.061090 -0.000000
											CHANNELS 3 Zrotation Yrotation Xrotation
											JOINT RightHandIndex3
											{
												OFFSET -0.000000 3.248873 0.000000
												CHANNELS 3 Zrotation Yrotation Xrotation
												JOINT RightHandIndex4
												{
													OFFSET -0.000000 2.639709 0.000000
													CHANNELS 3 Zrotation Yrotation Xrotation
													End Site
													{
														OFFSET 0.000000 0.000000 0.000000
													}
												}
											}
										}
									}
									JOINT RightHandMiddle1
									{
										OFFSET 0.104102 9.502952 0.006768
										CHANNELS 3 Zrotation Yrotation Xrotation
										JOINT RightHandMiddle2
										{
											OFFSET -0.000000 4.568727 0.000000
											CHANNELS 3 Zrotation Yrotation Xrotation
											JOINT RightHandMiddle3
											{
												OFFSET -0.000000 3.654981 -0.000000
												CHANNELS 3 Zrotation Yrotation Xrotation
												JOINT RightHandMiddle4
												{
													OFFSET 0.000000 2.741236 0.000000
													CHANNELS 3 Zrotation Yrotation Xrotation
													End Site
													{
														OFFSET 0.000000 0.000000 0.000000
													}
												}
											}
										}
									}
									JOINT RightHandRing1
									{
										OFFSET 0.086752 8.921708 -2.267442
										CHANNELS 3 Zrotation Yrotation Xrotation
										JOINT RightHandRing2
										{
											OFFSET 0.000000 4.061090 -0.000000
											CHANNELS 3 Zrotation Yrotation Xrotation
											JOINT RightHandRing3
											{
												OFFSET 0.000000 3.654981 -0.000000
												CHANNELS 3 Zrotation Yrotation Xrotation
												JOINT RightHandRing4
												{
													OFFSET -0.000000 2.741236 0.000000
													CHANNELS 3 Zrotation Yrotation Xrotation
													End Site
													{
														OFFSET 0.000000 0.000000 0.000000
													}
												}
											}
										}
									}
									JOINT RightHandPinky1
									{
										OFFSET -0.173504 7.976997 -4.467199
										CHANNELS 3 Zrotation Yrotation Xrotation
										JOINT RightHandPinky2
										{
											OFFSET -0.000000 3.350399 -0.000000
											CHANNELS 3 Zrotation Yrotation Xrotation
											JOINT RightHandPinky3
											{
												OFFSET -0.000000 2.842763 0.000000
												CHANNELS 3 Zrotation Yrotation Xrotation
												JOINT RightHandPinky4
												{
													OFFSET 0.000000 2.639709 -0.000000
													CHANNELS 3 Zrotation Yrotation Xrotation
													End Site
													{
														OFFSET 0.000000 0.000000 0.000000
													}
												}
											}
										}
									}
									JOINT RightForeArmEnd
									{
										OFFSET 0.000000 0.000000 0.000000
										CHANNELS 3 Zrotation Yrotation Xrotation
										End Site
										{
											OFFSET 0.000000 0.000000 0.000000
										}
									}
								}
								JOINT RightArmEnd
								{
									OFFSET 0.000000 0.000000 0.000000
									CHANNELS 3 Zrotation Yrotation Xrotation
									End Site
									{
										OFFSET 0.000000 0.000000 0.000000
									}
								}
							}
						}
					}
					JOINT LeftShoulder
					{
						OFFSET 2.625389 11.175210 -0.000000
						CHANNELS 3 Zrotation Yrotation Xrotation
						JOINT LeftArm
						{
							OFFSET -0.000000 10.813635 0.000000
							CHANNELS 3 Zrotation Yrotation Xrotation
							JOINT LeftForeArm
							{
								OFFSET 0.000000 28.724781 0.000000
								CHANNELS 3 Zrotation Yrotation Xrotation
								JOINT LeftHand
								{
									OFFSET 0.644384 25.716167 -0.328871
									CHANNELS 3 Zrotation Yrotation Xrotation
									JOINT LeftHandThumb1
									{
										OFFSET 2.867323 3.959563 2.944291
										CHANNELS 3 Zrotation Yrotation Xrotation
										JOINT LeftHandThumb2
										{
											OFFSET 0.000000 3.350399 0.000000
											CHANNELS 3 Zrotation Yrotation Xrotation
											JOINT LeftHandThumb3
											{
												OFFSET 0.000000 3.756509 0.000000
												CHANNELS 3 Zrotation Yrotation Xrotation
												JOINT LeftHandThumb4
												{
													OFFSET -0.000000 3.100000 -0.000000
													CHANNELS 3 Zrotation Yrotation Xrotation
													End Site
													{
														OFFSET 0.000000 0.000000 0.000000
													}
												}
											}
										}
									}
									JOINT LeftHandIndex1
									{
										OFFSET 0.086752 10.030893 2.345280
										CHANNELS 3 Zrotation Yrotation Xrotation
										JOINT LeftHandIndex2
										{
											OFFSET -0.000000 4.061090 -0.000000
											CHANNELS 3 Zrotation Yrotation Xrotation
											JOINT LeftHandIndex3
											{
												OFFSET -0.000000 3.248873 0.000000
												CHANNELS 3 Zrotation Yrotation Xrotation
												JOINT LeftHandIndex4
												{
													OFFSET 0.000000 2.639709 0.000000
													CHANNELS 3 Zrotation Yrotation Xrotation
													End Site
													{
														OFFSET 0.000000 0.000000 0.000000
													}
												}
											}
										}
									}
									JOINT LeftHandMiddle1
									{
										OFFSET -0.104102 9.502952 0.006768
										CHANNELS 3 Zrotation Yrotation Xrotation
										JOINT LeftHandMiddle2
										{
											OFFSET 0.000000 4.568727 0.000000
											CHANNELS 3 Zrotation Yrotation Xrotation
											JOINT LeftHandMiddle3
											{
												OFFSET 0.000000 3.654981 -0.000000
												CHANNELS 3 Zrotation Yrotation Xrotation
												JOINT LeftHandMiddle4
												{
													OFFSET -0.000000 2.741236 -0.000000
													CHANNELS 3 Zrotation Yrotation Xrotation
													End Site
													{
														OFFSET 0.000000 0.000000 0.000000
													}
												}
											}
										}
									}
									JOINT LeftHandRing1
									{
										OFFSET -0.086752 8.921708 -2.267442
										CHANNELS 3 Zrotation Yrotation Xrotation
										JOINT LeftHandRing2
										{
											OFFSET 0.000000 4.061090 0.000000
											CHANNELS 3 Zrotation Yrotation Xrotation
											JOINT LeftHandRing3
											{
												OFFSET -0.000000 3.654981 0.000000
												CHANNELS 3 Zrotation Yrotation Xrotation
												JOINT LeftHandRing4
												{
													OFFSET -0.000000 2.741236 -0.000000
													CHANNELS 3 Zrotation Yrotation Xrotation
													End Site
													{
														OFFSET 0.000000 0.000000 0.000000
													}
												}
											}
										}
									}
									JOINT LeftHandPinky1
									{
										OFFSET 0.173504 7.976997 -4.467199
										CHANNELS 3 Zrotation Yrotation Xrotation
										JOINT LeftHandPinky2
										{
											OFFSET 0.000000 3.350399 0.000000
											CHANNELS 3 Zrotation Yrotation Xrotation
											JOINT LeftHandPinky3
											{
												OFFSET 0.000000 2.842763 0.000000
												CHANNELS 3 Zrotation Yrotation Xrotation
												JOINT LeftHandPinky4
												{
													OFFSET -0.000000 2.639709 -0.000000
													CHANNELS 3 Zrotation Yrotation Xrotation
													End Site
													{
														OFFSET 0.000000 0.000000 0.000000
													}
												}
											}
										}
									}
									JOINT LeftForeArmEnd
									{
										OFFSET 0.000000 0.000000 0.000000
										CHANNELS 3 Zrotation Yrotation Xrotation
										End Site
										{
											OFFSET 0.000000 0.000000 0.000000
										}
									}
								}
								JOINT LeftArmEnd
								{
									OFFSET 0.000000 0.000000 0.000000
									CHANNELS 3 Zrotation Yrotation Xrotation
									End Site
									{
										OFFSET 0.000000 0.000000 0.000000
									}
								}
							}
						}
					}
				}
			}
		}
	}
	JOINT RightUpLeg
	{
		OFFSET -11.289943 -0.000000 -0.000000
		CHANNELS 3 Zrotation Yrotation Xrotation
		JOINT RightLeg
		{
			OFFSET -0.000000 -38.200325 0.000000
			CHANNELS 3 Zrotation Yrotation Xrotation
			JOINT RightFoot
			{
				OFFSET -0.000000 -39.900856 -0.000000
				CHANNELS 3 Zrotation Yrotation Xrotation
				JOINT RightToeBase
				{
					OFFSET 0.000000 -0.000000 15.261641
					CHANNELS 3 Zrotation Yrotation Xrotation
					JOINT RightToeBaseEnd
					{
						OFFSET 0.000000 0.000000 7.370709
						CHANNELS 3 Zrotation Yrotation Xrotation
						End Site
						{
							OFFSET 0.000000 0.000000 0.000000
						}
					}
				}
				JOINT RightLegEnd
				{
					OFFSET 0.000000 0.000000 0.000000
					CHANNELS 3 Zrotation Yrotation Xrotation
					End Site
					{
						OFFSET 0.000000 0.000000 0.000000
					}
				}
			}
			JOINT RightUpLegEnd
			{
				OFFSET 0.000000 0.000000 0.000000
				CHANNELS 3 Zrotation Yrotation Xrotation
				End Site
				{
					OFFSET 0.000000 0.000000 0.000000
				}
			}
		}
	}
	JOINT LeftUpLeg
	{
		OFFSET 11.315661 -0.000000 -0.000000
		CHANNELS 3 Zrotation Yrotation Xrotation
		JOINT LeftLeg
		{
			OFFSET -0.000000 -38.200325 0.000000
			CHANNELS 3 Zrotation Yrotation Xrotation
			JOINT LeftFoot
			{
				OFFSET -0.000000 -39.900856 0.000000
				CHANNELS 3 Zrotation Yrotation Xrotation
				JOINT LeftToeBase
				{
					OFFSET -0.000000 0.000000 15.261641
					CHANNELS 3 Zrotation Yrotation Xrotation
					JOINT LeftToeBaseEnd
					{
						OFFSET 0.000000 -0.000000 7.539996
						CHANNELS 3 Zrotation Yrotation Xrotation
						End Site
						{
							OFFSET 0.000000 0.000000 0.000000
						}
					}
				}
				JOINT LeftLegEnd
				{
					OFFSET 0.000000 0.000000 0.000000
					CHANNELS 3 Zrotation Yrotation Xrotation
					End Site
					{
						OFFSET 0.000000 0.000000 0.000000
					}
				}
			}
			JOINT LeftUpLegEnd
			{
				OFFSET 0.000000 0.000000 0.000000
				CHANNELS 3 Zrotation Yrotation Xrotation
				End Site
				{
					OFFSET 0.000000 0.000000 0.000000
				}
			}
		}
	}
}
MOTION
Frames: 5
Frame Time: 0.016667
0.076331 88.517960 4.102760 -0.134703 -0.021190 -8.939666 -0.376463 0.103872 6.982242 1.393615 -0.158629 0.110552 -0.171163 1.758520 3.622795 -0.143455 0.431410 1.622159 -2.661961 -1.443175 7.345625 -0.485227 -2.893333 -2.128719 0.865798 0.744641 -18.004137 0.000000 0.000000 0.000000 93.956680 -0.326628 4.842867 66.194344 -30.811996 1.702988 0.154563 2.413672 24.552874 4.006767 21.453838 -7.466650 10.637670 -1.840801 39.870987 0.000000 0.000000 -25.919998 0.000001 0.000000 -18.000004 0.000000 0.000000 0.000000 10.617632 16.719494 -10.729889 9.241579 -0.773692 -2.799806 9.240794 0.213329 -2.639216 0.000000 0.000000 0.000000 12.235164 6.872873 -10.989518 9.445150 -0.904820 -1.152257 9.443971 0.081625 -0.988162 0.000000 0.000000 0.000000 18.675833 -8.825777 -11.383095 11.751054 1.810795 1.839434 11.745141 -0.147317 1.432192 0.000000 0.000000 0.000000 24.926777 -25.397127 -13.237377 12.444600 3.363184 5.847783 12.423392 -0.543068 4.986430 0.000000 0.000000 0.000000 0.000000 0.000000 0.000000 0.000000 0.000000 0.000000 -91.599503 0.249479 8.887143 -68.302650 37.330803 -2.783466 -0.912591 -9.514425 35.602150 -4.481939 -17.283411 -13.939528 -11.236528 1.888869 39.607235 0.000000 0.000000 -27.360001 0.000000 0.000000 -18.999998 0.000000 0.000000 0.000000 -19.652576 16.711826 -10.875766 -11.091124 -0.676201 3.354270 -11.090502 0.305105 3.161897 0.000000 0.000000 0.000000 -16.976162 6.879694 -10.689837 -10.917037 -0.874889 1.329816 -10.915755 0.108144 1.140436 0.000000 0.000000 0.000000 -16.495281 -8.886404 -9.186988 -12.459712 1.789926 -1.948686 -12.453566 -0.163762 -1.517269 0.000000 0.000000 0.000000 -14.672685 -25.628365 -10.394346 -12.472650 3.360312 -5.860801 -12.451435 -0.545518 -4.997535 0.000000 0.000000 0.000000 0.000000 0.000000 0.000000 0.000000 0.000000 0.000000 1.127747 7.762799 9.408243 -0.096422 -0.562858 9.747823 -2.559340 -5.058014 15.771087 -0.895291 0.609108 -19.146004 0.000000 0.000000 0.000000 0.000000 0.000000 0.000000 0.000000 0.000000 0.000000 2.057333 12.534587 14.804424 0.048182 0.787149 3.433273 -0.121166 7.933590 17.308531 0.823973 -1.150159 -17.941118 0.000000 0.000000 0.000000 0.000000 0.000000 0.000000 0.000000 0.000000 0.000000 
-0.004731 88.502419 3.863328 0.612822 0.032940 -9.280796 -1.636595 0.265966 6.475091 1.078454 -0.202086 1.813984 0.278518 1.564474 2.037985 1.337789 0.282266 3.264449 -2.943311 -0.736337 5.710855 -0.666300 -2.191028 -2.370325 0.421339 0.872180 -17.397989 0.000000 0.000000 0.000000 91.874496 -0.212581 6.657312 66.257103 -28.791220 2.710580 0.181146 4.500564 24.345648 3.214910 18.892004 -7.503191 10.613694 -1.847413 39.878727 -0.000002 0.000018 -26.068083 -0.000007 0.000030 -18.037069 0.000010 -0.000005 -0.000011 10.750748 17.034960 -9.303408 8.982097 -0.688165 -2.776083 9.119538 0.306522 -2.627925 -0.000016 0.000008 -0.000028 12.196880 7.064223 -9.630424 9.086361 -0.882702 -1.131973 9.086676 0.110287 -0.969212 0.000020 0.000068 0.000009 18.345089 -9.107345 -9.450640 11.058623 1.840176 1.625169 10.996300 -0.155804 1.266495 -0.000018 0.000283 0.000010 24.184074 -25.839083 -11.040144 11.751052 3.432774 4.880474 11.426356 -0.535569 4.155808 -0.000293 -0.000005 0.000019 0.000000 0.000000 0.000000 0.000000 0.000000 0.000000 -91.195549 0.213227 9.374215 -68.277946 36.488899 -2.861557 -1.089213 -11.060576 35.301464 -3.339010 -16.489067 -14.027033 -11.400835 1.889038 39.534340 -0.000006 0.000016 -27.600771 -0.000043 -0.000028 -19.248751 -0.000089 -0.000009 0.001260 -19.343542 17.199133 -9.993998 -10.991197 -0.660389 3.072566 -11.320044 0.321638 2.877110 0.000002 0.000700 0.000014 -17.522303 7.093825 -10.154541 -10.923882 -0.886044 1.189930 -10.755702 0.108878 1.013987 0.000572 -0.000040 -0.000034 -17.320866 -9.099577 -8.880158 -12.136473 1.833120 -1.657442 -11.978823 -0.146843 -1.271504 0.000338 0.000007 0.000003 -15.241498 -26.187462 -10.242615 -11.918715 3.530978 -4.530046 -11.897080 -0.428742 -3.855044 0.000087 -0.000010 -0.000034 0.000000 0.000000 0.000000 0.000000 0.000000 0.000000 -0.448886 5.309108 8.865860 -0.115142 -0.456764 11.112490 -2.528777 -3.384145 15.967825 -0.774986 0.411768 -20.038136 0.000000 0.000000 0.000000 0.000000 0.000000 0.000000 0.000000 0.000000 0.000000 2.069819 11.571851 15.366564 0.062049 0.788024 4.372521 0.027171 10.195015 16.716457 0.873424 -1.015974 -17.648741 0.000000 0.000000 0.000000 0.000000 0.000000 0.000000 0.000000 0.000000 0.000000 
0.013282 88.505142 3.793182 0.668645 -0.054186 -9.289676 -1.668982 0.238803 6.486884 0.990934 -0.189269 1.976217 0.296961 1.540038 2.015627 1.388674 0.236455 3.322945 -3.221601 -0.264617 5.434545 -0.516165 -1.786859 -2.398594 0.339684 0.833908 -17.344660 0.000000 0.000000 0.000000 91.769859 -0.146041 6.798534 65.988411 -29.010441 3.067091 0.126265 4.582255 24.442678 3.112664 17.895973 -7.303062 10.592624 -1.833252 39.901039 -0.000004 0.000025 -26.061605 -0.000003 0.000024 -18.017801 0.000015 0.000001 -0.000019 10.753364 17.087624 -9.098973 9.059745 -0.689676 -2.764712 9.203936 0.307793 -2.610508 -0.000000 0.000021 -0.000019 12.129112 7.084921 -9.394244 9.135174 -0.885430 -1.122927 9.112522 0.109817 -0.958266 0.000017 0.000038 0.000000 18.144749 -9.140946 -9.218287 11.006869 1.845465 1.602266 10.961864 -0.153391 1.246603 -0.000026 0.000372 -0.000001 23.857651 -25.917208 -10.822459 11.657248 3.450484 4.800630 11.309999 -0.525738 4.087647 -0.000352 0.000005 0.000010 0.000000 0.000000 0.000000 0.000000 0.000000 0.000000 -90.915222 0.182457 9.451167 -68.799484 36.029171 -3.203896 -1.029925 -10.996778 35.631126 -3.234559 -16.479073 -13.922347 -11.365433 1.879897 39.551853 0.000002 0.000017 -27.518013 -0.000060 -0.000017 -19.200933 -0.000061 -0.000002 0.001000 -19.142954 17.222221 -9.840527 -10.955469 -0.664693 3.037427 -11.296205 0.318740 2.837432 0.000016 0.000714 0.000016 -17.292227 7.104151 -10.077530 -10.864969 -0.887665 1.171481 -10.702056 0.107243 0.999729 0.000600 -0.000038 -0.000089 -17.059391 -9.110692 -8.889966 -12.049398 1.837209 -1.639000 -11.898518 -0.143512 -1.255070 0.000336 0.000014 0.000002 -14.971915 -26.218569 -10.336132 -11.811673 3.538069 -4.473691 -11.787115 -0.424289 -3.805747 0.000210 0.000004 -0.000051 0.000000 0.000000 0.000000 0.000000 0.000000 0.000000 -0.586459 5.175147 8.495667 -0.117664 -0.461856 11.485012 -2.502921 -3.236235 15.900833 -0.782761 0.414504 -19.996387 0.000000 0.000000 0.000000 0.000000 0.000000 0.000000 0.000000 0.000000 0.000000 2.045359 11.797496 15.334747 0.064558 0.778225 4.293191 -0.030857 10.345431 16.825094 0.878356 -1.016645 -17.658289 0.000000 0.000000 0.000000 0.000000 0.000000 0.000000 0.000000 0.000000 0.000000 
0.016717 88.511360 3.709486 0.721015 -0.131894 -9.240551 -1.710524 0.216100 6.531999 0.927688 -0.179163 2.106345 0.298647 1.529457 1.935279 1.410241 0.210260 3.398058 -3.544812 0.173646 5.057930 -0.410658 -1.443537 -2.510161 0.276758 0.802277 -17.320272 0.000000 0.000000 0.000000 91.603355 -0.083428 6.908438 65.914276 -29.062551 3.324041 0.086660 4.701556 24.570009 2.964918 16.800344 -7.002611 10.582781 -1.816058 39.924835 -0.000003 0.000023 -26.068037 -0.000004 0.000025 -18.002762 0.000015 0.000001 -0.000018 10.874377 17.165308 -8.747102 9.216950 -0.688648 -2.742174 9.362765 0.312050 -2.582844 -0.000000 0.000020 -0.000019 12.161996 7.117401 -9.064845 9.263424 -0.887257 -1.111012 9.224319 0.110237 -0.945401 0.000016 0.000031 0.000003 18.037470 -9.187046 -8.920194 11.028986 1.849410 1.573822 10.990520 -0.152565 1.223474 -0.000024 0.000351 -0.000001 23.635651 -26.009483 -10.595719 11.637057 3.460288 4.718081 11.270446 -0.523743 4.014761 -0.000434 0.000005 0.000001 0.000000 0.000000 0.000000 0.000000 0.000000 0.000000 -90.616447 0.151024 9.535910 -69.032860 35.657597 -3.390261 -0.941278 -11.128343 36.090527 -3.126622 -16.324778 -13.536295 -11.312846 1.867113 39.581581 0.000001 0.000017 -27.404373 -0.000073 -0.000019 -19.130066 -0.000125 -0.000004 0.000862 -18.930141 17.284948 -9.572839 -11.038903 -0.665342 3.001842 -11.386594 0.319871 2.798085 0.000014 0.000819 0.000019 -17.102255 7.130416 -9.897531 -10.936151 -0.888204 1.154517 -10.777237 0.106829 0.985330 0.000638 -0.000040 -0.000116 -16.867140 -9.145520 -8.820833 -12.090684 1.839634 -1.622126 -11.942875 -0.142566 -1.238724 0.000303 0.000014 0.000002 -14.793274 -26.301813 -10.350894 -11.821493 3.541444 -4.421364 -11.792561 -0.424750 -3.755242 0.000282 0.000003 -0.000053 0.000000 0.000000 0.000000 0.000000 0.000000 0.000000 -0.696577 5.170393 8.196612 -0.118060 -0.457542 11.695666 -2.500235 -3.115433 15.903488 -0.791425 0.417473 -20.011539 0.000000 0.000000 0.000000 0.000000 0.000000 0.000000 0.000000 0.000000 0.000000 2.020221 11.972967 15.119603 0.066688 0.769268 4.418105 -0.048784 10.493979 16.921404 0.874218 -1.012247 -17.711082 0.000000 0.000000 0.000000 0.000000 0.000000 0.000000 0.000000 0.000000 0.000000 
0.003509 88.515411 3.623904 0.774988 -0.213317 -9.177532 -1.749669 0.200338 6.565247 0.876423 -0.169201 2.244303 0.300123 1.527651 1.821892 1.388961 0.205254 3.512111 -3.894262 0.519386 4.622024 -0.344793 -1.202600 -2.696120 0.235296 0.773438 -17.358850 0.000000 0.000000 0.000000 91.377876 -0.038634 7.001344 65.936584 -29.069355 3.564132 0.071380 4.883085 24.649008 2.824261 15.798323 -6.871918 10.536824 -1.797058 39.962215 -0.000003 0.000022 -25.995049 -0.000004 0.000026 -17.927038 0.000015 0.000001 -0.000018 10.895055 17.236834 -8.307659 9.329440 -0.692785 -2.696145 9.476354 0.310910 -2.535149 -0.000001 0.000020 -0.000018 12.102442 7.147895 -8.689773 9.346188 -0.890826 -1.089846 9.297081 0.108799 -0.925405 0.000016 0.000035 0.000004 17.861246 -9.224418 -8.645948 11.002656 1.855931 1.532415 10.963877 -0.149073 1.191075 -0.000023 0.000304 -0.000003 23.396311 -26.071842 -10.451963 11.580488 3.478044 4.603234 11.201788 -0.513376 3.916725 -0.000526 0.000005 -0.000003 0.000000 0.000000 0.000000 0.000000 0.000000 0.000000 -90.326477 0.124673 9.597021 -68.937859 35.427917 -3.335024 -0.867024 -11.423966 36.521164 -3.119852 -15.762829 -13.190561 -11.217783 1.849817 39.632763 0.000001 0.000016 -27.193800 -0.000080 -0.000021 -18.991104 -0.000220 -0.000005 0.000891 -18.635515 17.357586 -9.304357 -11.130829 -0.667959 2.955953 -11.477478 0.318394 2.750432 0.000012 0.000960 0.000022 -16.857283 7.157607 -9.700867 -11.012972 -0.889624 1.133364 -10.858020 0.105510 0.967060 0.000659 -0.000040 -0.000124 -16.685503 -9.182894 -8.741118 -12.145964 1.842974 -1.599298 -11.995234 -0.140676 -1.217449 0.000308 0.000015 0.000002 -14.697241 -26.392221 -10.343158 -11.854509 3.549630 -4.349550 -11.824540 -0.420964 -3.690390 0.000323 0.000002 -0.000053 0.000000 0.000000 0.000000 0.000000 0.000000 0.000000 -0.773332 5.229035 7.929268 -0.117424 -0.448075 11.918791 -2.522797 -3.001003 15.887257 -0.791838 0.424171 -20.028559 0.000000 0.000000 0.000000 0.000000 0.000000 0.000000 0.000000 0.000000 0.000000 1.974853 12.094071 14.847277 0.067271 0.759024 4.628827 -0.030810 10.632312 17.006277 0.866445 -1.006432 -17.768145 0.000000 0.000000 0.000000 0.000000 0.000000 0.000000 0.000000 0.000000 0.000000 
